<svg width="60" height="60" viewBox="0 0 60 60" fill="none" xmlns="http://www.w3.org/2000/svg">
<circle cx="30" cy="30" r="29.5" fill="white" stroke="black"/>
<mask id="path-2-outside-1_144_7" maskUnits="userSpaceOnUse" x="6" y="18" width="46" height="27" fill="black">
<rect fill="white" x="6" y="18" width="46" height="27"/>
<path d="M7.236 39V20.852H18.91V23.296H10.148V28.574H18.104V31.018H10.148V39H7.236Z"/>
<path d="M22.6438 19.76H25.4778V27.872H25.6338C26.0325 27.0573 26.5612 26.4247 27.2198 25.974C27.8785 25.506 28.7018 25.272 29.6898 25.272C31.2672 25.272 32.5238 25.8613 33.4598 27.04C34.3958 28.2187 34.8638 29.9693 34.8638 32.292C34.8638 34.6147 34.3958 36.3653 33.4598 37.544C32.5238 38.7227 31.2672 39.312 29.6898 39.312C28.7018 39.312 27.8785 39.0867 27.2198 38.636C26.5612 38.168 26.0325 37.5267 25.6338 36.712H25.4778V39H22.6438V19.76ZM28.5198 36.998C29.5945 36.998 30.4178 36.6687 30.9898 36.01C31.5792 35.3513 31.8738 34.476 31.8738 33.384V31.2C31.8738 30.108 31.5792 29.2327 30.9898 28.574C30.4178 27.9153 29.5945 27.586 28.5198 27.586C28.1038 27.586 27.7138 27.638 27.3498 27.742C26.9858 27.846 26.6652 28.002 26.3878 28.21C26.1105 28.418 25.8852 28.678 25.7118 28.99C25.5558 29.2847 25.4778 29.64 25.4778 30.056V34.528C25.4778 34.944 25.5558 35.308 25.7118 35.62C25.8852 35.9147 26.1105 36.166 26.3878 36.374C26.6652 36.582 26.9858 36.738 27.3498 36.842C27.7138 36.946 28.1038 36.998 28.5198 36.998Z"/>
<path d="M37.7397 43.654V41.21H50.2197V43.654H37.7397Z"/>
</mask>
<path d="M7.236 39V20.852H18.91V23.296H10.148V28.574H18.104V31.018H10.148V39H7.236Z" fill="#8298F5"/>
<path d="M22.6438 19.76H25.4778V27.872H25.6338C26.0325 27.0573 26.5612 26.4247 27.2198 25.974C27.8785 25.506 28.7018 25.272 29.6898 25.272C31.2672 25.272 32.5238 25.8613 33.4598 27.04C34.3958 28.2187 34.8638 29.9693 34.8638 32.292C34.8638 34.6147 34.3958 36.3653 33.4598 37.544C32.5238 38.7227 31.2672 39.312 29.6898 39.312C28.7018 39.312 27.8785 39.0867 27.2198 38.636C26.5612 38.168 26.0325 37.5267 25.6338 36.712H25.4778V39H22.6438V19.76ZM28.5198 36.998C29.5945 36.998 30.4178 36.6687 30.9898 36.01C31.5792 35.3513 31.8738 34.476 31.8738 33.384V31.2C31.8738 30.108 31.5792 29.2327 30.9898 28.574C30.4178 27.9153 29.5945 27.586 28.5198 27.586C28.1038 27.586 27.7138 27.638 27.3498 27.742C26.9858 27.846 26.6652 28.002 26.3878 28.21C26.1105 28.418 25.8852 28.678 25.7118 28.99C25.5558 29.2847 25.4778 29.64 25.4778 30.056V34.528C25.4778 34.944 25.5558 35.308 25.7118 35.62C25.8852 35.9147 26.1105 36.166 26.3878 36.374C26.6652 36.582 26.9858 36.738 27.3498 36.842C27.7138 36.946 28.1038 36.998 28.5198 36.998Z" fill="#93CAAC"/>
<path d="M37.7397 43.654V41.21H50.2197V43.654H37.7397Z" fill="#F5BF44"/>
<path d="M7.236 39H6.236V40H7.236V39ZM7.236 20.852V19.852H6.236V20.852H7.236ZM18.91 20.852H19.91V19.852H18.91V20.852ZM18.91 23.296V24.296H19.91V23.296H18.91ZM10.148 23.296V22.296H9.148V23.296H10.148ZM10.148 28.574H9.148V29.574H10.148V28.574ZM18.104 28.574H19.104V27.574H18.104V28.574ZM18.104 31.018V32.018H19.104V31.018H18.104ZM10.148 31.018V30.018H9.148V31.018H10.148ZM10.148 39V40H11.148V39H10.148ZM8.236 39V20.852H6.236V39H8.236ZM7.236 21.852H18.91V19.852H7.236V21.852ZM17.91 20.852V23.296H19.91V20.852H17.91ZM18.91 22.296H10.148V24.296H18.91V22.296ZM9.148 23.296V28.574H11.148V23.296H9.148ZM10.148 29.574H18.104V27.574H10.148V29.574ZM17.104 28.574V31.018H19.104V28.574H17.104ZM18.104 30.018H10.148V32.018H18.104V30.018ZM9.148 31.018V39H11.148V31.018H9.148ZM10.148 38H7.236V40H10.148V38ZM22.6438 19.76V18.76H21.6438V19.76H22.6438ZM25.4778 19.76H26.4778V18.76H25.4778V19.76ZM25.4778 27.872H24.4778V28.872H25.4778V27.872ZM25.6338 27.872V28.872H26.2578L26.5321 28.3116L25.6338 27.872ZM27.2198 25.974L27.7845 26.7993L27.7918 26.7943L27.7991 26.7892L27.2198 25.974ZM33.4598 27.04L34.243 26.4181L34.243 26.4181L33.4598 27.04ZM33.4598 37.544L34.243 38.1659L34.243 38.1659L33.4598 37.544ZM27.2198 38.636L26.6406 39.4512L26.6479 39.4563L26.6552 39.4613L27.2198 38.636ZM25.6338 36.712L26.5321 36.2724L26.2578 35.712H25.6338V36.712ZM25.4778 36.712V35.712H24.4778V36.712H25.4778ZM25.4778 39V40H26.4778V39H25.4778ZM22.6438 39H21.6438V40H22.6438V39ZM30.9898 36.01L30.2446 35.3432L30.2397 35.3487L30.2348 35.3543L30.9898 36.01ZM30.9898 28.574L30.2348 29.2297L30.2397 29.2353L30.2446 29.2408L30.9898 28.574ZM27.3498 27.742L27.0751 26.7805L27.0751 26.7805L27.3498 27.742ZM26.3878 28.21L25.7878 27.41L25.7878 27.41L26.3878 28.21ZM25.7118 28.99L24.8377 28.5044L24.8328 28.5132L24.8281 28.5221L25.7118 28.99ZM25.7118 35.62L24.8174 36.0672L24.8326 36.0977L24.8499 36.127L25.7118 35.62ZM26.3878 36.374L25.7878 37.174L25.7878 37.174L26.3878 36.374ZM27.3498 36.842L27.6246 35.8805L27.6246 35.8805L27.3498 36.842ZM22.6438 20.76H25.4778V18.76H22.6438V20.76ZM24.4778 19.76V27.872H26.4778V19.76H24.4778ZM25.4778 28.872H25.6338V26.872H25.4778V28.872ZM26.5321 28.3116C26.8653 27.6306 27.2871 27.1397 27.7845 26.7993L26.6552 25.1487C25.8353 25.7097 25.1997 26.4841 24.7356 27.4324L26.5321 28.3116ZM27.7991 26.7892C28.2539 26.466 28.8624 26.272 29.6898 26.272V24.272C28.5412 24.272 27.5032 24.546 26.6406 25.1588L27.7991 26.7892ZM29.6898 26.272C30.9791 26.272 31.9407 26.7351 32.6767 27.6619L34.243 26.4181C33.107 24.9876 31.5553 24.272 29.6898 24.272V26.272ZM32.6767 27.6619C33.414 28.5903 33.8638 30.0791 33.8638 32.292H35.8638C35.8638 29.8596 35.3777 27.847 34.243 26.4181L32.6767 27.6619ZM33.8638 32.292C33.8638 34.5049 33.414 35.9937 32.6767 36.9221L34.243 38.1659C35.3777 36.737 35.8638 34.7244 35.8638 32.292H33.8638ZM32.6767 36.9221C31.9407 37.8489 30.9791 38.312 29.6898 38.312V40.312C31.5553 40.312 33.107 39.5964 34.243 38.1659L32.6767 36.9221ZM29.6898 38.312C28.8551 38.312 28.241 38.123 27.7845 37.8107L26.6552 39.4613C27.516 40.0503 28.5486 40.312 29.6898 40.312V38.312ZM27.7991 37.8208C27.2924 37.4608 26.8665 36.9559 26.5321 36.2724L24.7356 37.1516C25.1985 38.0974 25.83 38.8752 26.6406 39.4512L27.7991 37.8208ZM25.6338 35.712H25.4778V37.712H25.6338V35.712ZM24.4778 36.712V39H26.4778V36.712H24.4778ZM25.4778 38H22.6438V40H25.4778V38ZM23.6438 39V19.76H21.6438V39H23.6438ZM28.5198 37.998C29.8112 37.998 30.9398 37.5927 31.7449 36.6657L30.2348 35.3543C29.8959 35.7446 29.3778 35.998 28.5198 35.998V37.998ZM31.7351 36.6768C32.5247 35.7942 32.8738 34.6616 32.8738 33.384H30.8738C30.8738 34.2904 30.6336 34.9084 30.2446 35.3432L31.7351 36.6768ZM32.8738 33.384V31.2H30.8738V33.384H32.8738ZM32.8738 31.2C32.8738 29.9224 32.5247 28.7898 31.7351 27.9072L30.2446 29.2408C30.6336 29.6756 30.8738 30.2936 30.8738 31.2H32.8738ZM31.7449 27.9183C30.9398 26.9913 29.8112 26.586 28.5198 26.586V28.586C29.3778 28.586 29.8959 28.8394 30.2348 29.2297L31.7449 27.9183ZM28.5198 26.586C28.02 26.586 27.5368 26.6486 27.0751 26.7805L27.6246 28.7035C27.8909 28.6274 28.1877 28.586 28.5198 28.586V26.586ZM27.0751 26.7805C26.6046 26.9149 26.1715 27.1223 25.7878 27.41L26.9878 29.01C27.1589 28.8817 27.3671 28.7771 27.6246 28.7035L27.0751 26.7805ZM25.7878 27.41C25.3947 27.7049 25.0772 28.0732 24.8377 28.5044L26.586 29.4756C26.6931 29.2828 26.8263 29.1311 26.9878 29.01L25.7878 27.41ZM24.8281 28.5221C24.5791 28.9923 24.4778 29.5166 24.4778 30.056H26.4778C26.4778 29.7634 26.5326 29.577 26.5956 29.4579L24.8281 28.5221ZM24.4778 30.056V34.528H26.4778V30.056H24.4778ZM24.4778 34.528C24.4778 35.0696 24.5798 35.5921 24.8174 36.0672L26.6063 35.1728C26.5318 35.0239 26.4778 34.8184 26.4778 34.528H24.4778ZM24.8499 36.127C25.0913 36.5373 25.4062 36.8878 25.7878 37.174L26.9878 35.574C26.8148 35.4442 26.6791 35.292 26.5738 35.113L24.8499 36.127ZM25.7878 37.174C26.1715 37.4617 26.6046 37.6691 27.0751 37.8035L27.6246 35.8805C27.3671 35.8069 27.1589 35.7023 26.9878 35.574L25.7878 37.174ZM27.0751 37.8035C27.5368 37.9354 28.02 37.998 28.5198 37.998V35.998C28.1877 35.998 27.8909 35.9566 27.6246 35.8805L27.0751 37.8035ZM37.7397 43.654H36.7397V44.654H37.7397V43.654ZM37.7397 41.21V40.21H36.7397V41.21H37.7397ZM50.2197 41.21H51.2197V40.21H50.2197V41.21ZM50.2197 43.654V44.654H51.2197V43.654H50.2197ZM38.7397 43.654V41.21H36.7397V43.654H38.7397ZM37.7397 42.21H50.2197V40.21H37.7397V42.21ZM49.2197 41.21V43.654H51.2197V41.21H49.2197ZM50.2197 42.654H37.7397V44.654H50.2197V42.654Z" fill="black" mask="url(#path-2-outside-1_144_7)"/>
</svg>
