<svg width="21" height="20" viewBox="0 0 21 20" fill="none" xmlns="http://www.w3.org/2000/svg">
<path d="M11 10V2C11 1.73478 11.1054 1.48043 11.2929 1.29289C11.4804 1.10536 11.7348 1 12 1H18.297C18.5013 1.00002 18.7007 1.0626 18.8683 1.17933C19.036 1.29606 19.1638 1.46133 19.2347 1.65291C19.3056 1.84449 19.3162 2.0532 19.2649 2.25094C19.2136 2.44869 19.1031 2.62599 18.948 2.759L14.252 6.784M11 19L3.586 11.586C3.2109 11.211 3.00011 10.7024 3 10.172V4.415C3.00099 4.21767 3.06022 4.02503 3.17026 3.86124C3.2803 3.69744 3.43626 3.56978 3.61857 3.49427C3.80088 3.41876 4.00142 3.39877 4.19506 3.43679C4.38869 3.47481 4.56678 3.56916 4.707 3.708L19 18.009" stroke="black" stroke-width="2" stroke-linecap="round" stroke-linejoin="round"/>
<path d="M11.2135 1.3811L19.6275 16.3471C19.7346 16.5377 19.7762 16.7582 19.7461 16.9747C19.7159 17.1913 19.6156 17.392 19.4605 17.5461L18.2925 18.7091C18.1049 18.8957 17.8511 19.0003 17.5865 19.0001H5.35052C5.12336 19.0002 4.90293 18.923 4.72552 18.7811L2.24952 16.8001C2.08723 16.6703 1.9694 16.4932 1.91239 16.2934C1.85539 16.0936 1.86204 15.881 1.93143 15.6851C2.00083 15.4893 2.12951 15.3199 2.2996 15.2005C2.46969 15.0812 2.67273 15.0178 2.88052 15.0191L7.04552 15.0461" stroke="black" stroke-width="2" stroke-linecap="round" stroke-linejoin="round"/>
</svg>
