<svg width="275" height="275" viewBox="0 0 275 275" fill="none" xmlns="http://www.w3.org/2000/svg">
<circle cx="137.5" cy="137.5" r="137.5" fill="white"/>
<path d="M42.75 176V88.75H98.875V100.5H56.75V125.875H95V137.625H56.75V176H42.75Z" fill="#8298F5"/>
<path d="M116.826 83.5H130.451V122.5H131.201C133.118 118.583 135.66 115.542 138.826 113.375C141.993 111.125 145.951 110 150.701 110C158.285 110 164.326 112.833 168.826 118.5C173.326 124.167 175.576 132.583 175.576 143.75C175.576 154.917 173.326 163.333 168.826 169C164.326 174.667 158.285 177.5 150.701 177.5C145.951 177.5 141.993 176.417 138.826 174.25C135.66 172 133.118 168.917 131.201 165H130.451V176H116.826V83.5ZM145.076 166.375C150.243 166.375 154.201 164.792 156.951 161.625C159.785 158.458 161.201 154.25 161.201 149V138.5C161.201 133.25 159.785 129.042 156.951 125.875C154.201 122.708 150.243 121.125 145.076 121.125C143.076 121.125 141.201 121.375 139.451 121.875C137.701 122.375 136.16 123.125 134.826 124.125C133.493 125.125 132.41 126.375 131.576 127.875C130.826 129.292 130.451 131 130.451 133V154.5C130.451 156.5 130.826 158.25 131.576 159.75C132.41 161.167 133.493 162.375 134.826 163.375C136.16 164.375 137.701 165.125 139.451 165.625C141.201 166.125 143.076 166.375 145.076 166.375Z" fill="#93CAAC"/>
<path d="M189.402 198.375V186.625H249.402V198.375H189.402Z" fill="#F5BF44"/>
<circle cx="137.5" cy="137.5" r="136" fill="white" stroke="black" stroke-width="3"/>
<path d="M42.75 176V88.75H98.875V100.5H56.75V125.875H95V137.625H56.75V176H42.75Z" fill="#8298F5"/>
<path d="M116.826 83.5H130.451V122.5H131.201C133.118 118.583 135.66 115.542 138.826 113.375C141.993 111.125 145.951 110 150.701 110C158.285 110 164.326 112.833 168.826 118.5C173.326 124.167 175.576 132.583 175.576 143.75C175.576 154.917 173.326 163.333 168.826 169C164.326 174.667 158.285 177.5 150.701 177.5C145.951 177.5 141.993 176.417 138.826 174.25C135.66 172 133.118 168.917 131.201 165H130.451V176H116.826V83.5ZM145.076 166.375C150.243 166.375 154.201 164.792 156.951 161.625C159.785 158.458 161.201 154.25 161.201 149V138.5C161.201 133.25 159.785 129.042 156.951 125.875C154.201 122.708 150.243 121.125 145.076 121.125C143.076 121.125 141.201 121.375 139.451 121.875C137.701 122.375 136.16 123.125 134.826 124.125C133.493 125.125 132.41 126.375 131.576 127.875C130.826 129.292 130.451 131 130.451 133V154.5C130.451 156.5 130.826 158.25 131.576 159.75C132.41 161.167 133.493 162.375 134.826 163.375C136.16 164.375 137.701 165.125 139.451 165.625C141.201 166.125 143.076 166.375 145.076 166.375Z" fill="#93CAAC"/>
<path d="M189.402 198.375V186.625H249.402V198.375H189.402Z" fill="#F5BF44"/>
</svg>
