<svg width="69" height="69" viewBox="0 0 69 69" fill="none" xmlns="http://www.w3.org/2000/svg">
<circle cx="34.625" cy="34.5" r="34.375" fill="white"/>
<path d="M10.9375 44.125V22.3125H24.9688V25.25H14.4375V31.5937H24V34.5312H14.4375V44.125H10.9375Z" fill="#8298F5"/>
<path d="M29.4565 21H32.8628V30.75H33.0503C33.5295 29.7708 34.1649 29.0104 34.9565 28.4687C35.7482 27.9062 36.7378 27.625 37.9253 27.625C39.8211 27.625 41.3315 28.3333 42.4565 29.75C43.5815 31.1667 44.144 33.2708 44.144 36.0625C44.144 38.8542 43.5815 40.9583 42.4565 42.375C41.3315 43.7917 39.8211 44.5 37.9253 44.5C36.7378 44.5 35.7482 44.2292 34.9565 43.6875C34.1649 43.125 33.5295 42.3542 33.0503 41.375H32.8628V44.125H29.4565V21ZM36.519 41.7187C37.8107 41.7187 38.8003 41.3229 39.4878 40.5312C40.1961 39.7396 40.5503 38.6875 40.5503 37.375V34.75C40.5503 33.4375 40.1961 32.3854 39.4878 31.5937C38.8003 30.8021 37.8107 30.4062 36.519 30.4062C36.019 30.4062 35.5503 30.4687 35.1128 30.5937C34.6753 30.7187 34.2899 30.9062 33.9565 31.1562C33.6232 31.4062 33.3524 31.7187 33.144 32.0937C32.9565 32.4479 32.8628 32.875 32.8628 33.375V38.75C32.8628 39.25 32.9565 39.6875 33.144 40.0625C33.3524 40.4167 33.6232 40.7187 33.9565 40.9687C34.2899 41.2187 34.6753 41.4062 35.1128 41.5312C35.5503 41.6562 36.019 41.7187 36.519 41.7187Z" fill="#93CAAC"/>
<path d="M47.6006 49.7188V46.7813H62.6006V49.7188H47.6006Z" fill="#F5BF44"/>
<circle cx="34.625" cy="34.5" r="34" fill="white" stroke="black" stroke-width="0.75"/>
<path d="M10.9375 44.125V22.3125H24.9688V25.25H14.4375V31.5937H24V34.5312H14.4375V44.125H10.9375Z" fill="#8298F5"/>
<path d="M29.4565 21H32.8628V30.75H33.0503C33.5295 29.7708 34.1649 29.0104 34.9565 28.4687C35.7482 27.9062 36.7378 27.625 37.9253 27.625C39.8211 27.625 41.3315 28.3333 42.4565 29.75C43.5815 31.1667 44.144 33.2708 44.144 36.0625C44.144 38.8542 43.5815 40.9583 42.4565 42.375C41.3315 43.7917 39.8211 44.5 37.9253 44.5C36.7378 44.5 35.7482 44.2292 34.9565 43.6875C34.1649 43.125 33.5295 42.3542 33.0503 41.375H32.8628V44.125H29.4565V21ZM36.519 41.7187C37.8107 41.7187 38.8003 41.3229 39.4878 40.5312C40.1961 39.7396 40.5503 38.6875 40.5503 37.375V34.75C40.5503 33.4375 40.1961 32.3854 39.4878 31.5937C38.8003 30.8021 37.8107 30.4062 36.519 30.4062C36.019 30.4062 35.5503 30.4687 35.1128 30.5937C34.6753 30.7187 34.2899 30.9062 33.9565 31.1562C33.6232 31.4062 33.3524 31.7187 33.144 32.0937C32.9565 32.4479 32.8628 32.875 32.8628 33.375V38.75C32.8628 39.25 32.9565 39.6875 33.144 40.0625C33.3524 40.4167 33.6232 40.7187 33.9565 40.9687C34.2899 41.2187 34.6753 41.4062 35.1128 41.5312C35.5503 41.6562 36.019 41.7187 36.519 41.7187Z" fill="#93CAAC"/>
<path d="M47.6006 49.7188V46.7813H62.6006V49.7188H47.6006Z" fill="#F5BF44"/>
</svg>
