<svg width="25" height="21" viewBox="0 0 25 21" fill="none" xmlns="http://www.w3.org/2000/svg">
<path d="M23.0263 17.2295C23.5332 17.2297 24.0205 17.4123 24.3873 17.7395C24.7542 18.0667 24.9724 18.5133 24.9967 18.9868C25.0211 19.4603 24.8497 19.9245 24.5182 20.2831C24.1866 20.6416 23.7203 20.8672 23.2158 20.9129L23.0263 20.9215H1.97368C1.46682 20.9213 0.979481 20.7387 0.612649 20.4115C0.245818 20.0844 0.0276158 19.6378 0.00325755 19.1642C-0.0211007 18.6907 0.150252 18.2266 0.48181 17.868C0.813367 17.5094 1.27971 17.2839 1.78421 17.2381L1.97368 17.2295H23.0263ZM23.0263 8.61475C23.5498 8.61475 24.0518 8.80924 24.4219 9.15543C24.7921 9.50163 25 9.97117 25 10.4608C25 10.9504 24.7921 11.4199 24.4219 11.7661C24.0518 12.1123 23.5498 12.3068 23.0263 12.3068H1.97368C1.45023 12.3068 0.948216 12.1123 0.578079 11.7661C0.207941 11.4199 0 10.9504 0 10.4608C0 9.97117 0.207941 9.50163 0.578079 9.15543C0.948216 8.80924 1.45023 8.61475 1.97368 8.61475H23.0263ZM23.0263 0C23.5498 0 24.0518 0.194491 24.4219 0.540686C24.7921 0.886882 25 1.35642 25 1.84602C25 2.33561 24.7921 2.80515 24.4219 3.15135C24.0518 3.49754 23.5498 3.69204 23.0263 3.69204H1.97368C1.45023 3.69204 0.948216 3.49754 0.578079 3.15135C0.207941 2.80515 0 2.33561 0 1.84602C0 1.35642 0.207941 0.886882 0.578079 0.540686C0.948216 0.194491 1.45023 0 1.97368 0H23.0263Z" fill="black"/>
</svg>
