<svg width="24" height="25" viewBox="0 0 24 25" fill="none" xmlns="http://www.w3.org/2000/svg">
<path d="M12.0008 6.3689C12.5618 6.3689 13.1198 6.7229 13.5448 7.4309L19.4568 17.2849C20.3078 18.6999 19.6508 19.8579 18.0008 19.8579H6.00078C4.35078 19.8579 3.69378 18.6989 4.54478 17.2849L10.4568 7.4309C10.8818 6.7229 11.4398 6.3689 12.0008 6.3689ZM12.0008 4.3689C10.7048 4.3689 9.51878 5.1089 8.74178 6.3999L2.82978 16.2559C2.04378 17.5649 1.95778 18.9609 2.59478 20.0859C3.23178 21.2109 4.47378 21.8579 6.00078 21.8579H18.0008C19.5278 21.8579 20.7708 21.2119 21.4068 20.0869C22.0428 18.9619 21.9578 17.5659 21.1718 16.2569L15.2598 6.4029C14.4828 5.1089 13.2968 4.3689 12.0008 4.3689Z" fill="black"/>
<path d="M11.9992 18.1579C12.7172 18.1579 13.2992 17.5758 13.2992 16.8579C13.2992 16.1399 12.7172 15.5579 11.9992 15.5579C11.2812 15.5579 10.6992 16.1399 10.6992 16.8579C10.6992 17.5758 11.2812 18.1579 11.9992 18.1579Z" fill="black"/>
<path d="M13.5002 10.8579C13.5002 10.0279 12.8292 9.35791 12.0002 9.35791C11.7548 9.35819 11.5132 9.4187 11.2966 9.53411C11.08 9.64953 10.895 9.81633 10.7579 10.0199C10.6208 10.2234 10.5357 10.4575 10.5101 10.7016C10.4845 10.9457 10.5193 11.1924 10.6112 11.4199C11.1652 12.7959 12.0002 14.8579 12.0002 14.8579L13.3912 11.4199C13.4592 11.2469 13.5002 11.0569 13.5002 10.8579Z" fill="black"/>
</svg>
