<svg width="42" height="42" viewBox="0 0 42 42" fill="none" xmlns="http://www.w3.org/2000/svg">
<path fill-rule="evenodd" clip-rule="evenodd" d="M12.0752 24.1497C12.0752 23.732 12.2411 23.3314 12.5365 23.036C12.8319 22.7406 13.2325 22.5747 13.6502 22.5747H28.3502C28.7679 22.5747 29.1685 22.7406 29.4639 23.036C29.7593 23.3314 29.9252 23.732 29.9252 24.1497C29.9252 24.5674 29.7593 24.968 29.4639 25.2634C29.1685 25.5588 28.7679 25.7247 28.3502 25.7247H13.6502C13.2325 25.7247 12.8319 25.5588 12.5365 25.2634C12.2411 24.968 12.0752 24.5674 12.0752 24.1497ZM12.0752 30.4497C12.0752 30.032 12.2411 29.6314 12.5365 29.336C12.8319 29.0406 13.2325 28.8747 13.6502 28.8747H28.3502C28.7679 28.8747 29.1685 29.0406 29.4639 29.336C29.7593 29.6314 29.9252 30.032 29.9252 30.4497C29.9252 30.8674 29.7593 31.268 29.4639 31.5634C29.1685 31.8588 28.7679 32.0247 28.3502 32.0247H13.6502C13.2325 32.0247 12.8319 31.8588 12.5365 31.5634C12.2411 31.268 12.0752 30.8674 12.0752 30.4497Z" fill="#F5BF44"/>
<path fill-rule="evenodd" clip-rule="evenodd" d="M5.25 5.2498C5.25 2.9356 7.1358 1.0498 9.45 1.0498H23.499C24.6792 1.0498 25.7922 1.5496 26.5755 2.3749L26.5881 2.3896L35.6433 12.2638C36.3972 13.0681 36.75 14.1202 36.75 15.1198V36.7498C36.75 39.064 34.8642 40.9498 32.55 40.9498H9.45C7.1358 40.9498 5.25 39.064 5.25 36.7498V5.2498ZM23.4969 5.2498H9.45V36.7498H32.55V15.103L23.5284 5.2645L23.5221 5.2624L23.4969 5.2498Z" fill="#F5BF44"/>
<path fill-rule="evenodd" clip-rule="evenodd" d="M23.4994 1.0498C24.0564 1.0498 24.5905 1.27105 24.9843 1.66488C25.3782 2.05871 25.5994 2.59285 25.5994 3.1498V13.0198H34.6504C34.9262 13.0198 35.1993 13.0741 35.454 13.1797C35.7088 13.2852 35.9403 13.4399 36.1353 13.6349C36.3303 13.8299 36.485 14.0614 36.5906 14.3162C36.6961 14.571 36.7504 14.844 36.7504 15.1198C36.7504 15.3956 36.6961 15.6687 36.5906 15.9234C36.485 16.1782 36.3303 16.4097 36.1353 16.6047C35.9403 16.7997 35.7088 16.9544 35.454 17.06C35.1993 17.1655 34.9262 17.2198 34.6504 17.2198H23.4994C22.9425 17.2198 22.4083 16.9986 22.0145 16.6047C21.6207 16.2109 21.3994 15.6768 21.3994 15.1198V3.1498C21.3994 2.59285 21.6207 2.05871 22.0145 1.66488C22.4083 1.27105 22.9425 1.0498 23.4994 1.0498Z" fill="#F5BF44"/>
</svg>
