<svg width="18" height="18" viewBox="0 0 18 18" fill="none" xmlns="http://www.w3.org/2000/svg">
<path d="M5 2C5 1.73478 4.89464 1.48043 4.70711 1.29289C4.51957 1.10536 4.26522 1 4 1H2C1.73478 1 1.48043 1.10536 1.29289 1.29289C1.10536 1.48043 1 1.73478 1 2V16C1 16.2652 1.10536 16.5196 1.29289 16.7071C1.48043 16.8946 1.73478 17 2 17H4C4.26522 17 4.51957 16.8946 4.70711 16.7071C4.89464 16.5196 5 16.2652 5 16M5 2V16M5 2C5 1.73478 5.10536 1.48043 5.29289 1.29289C5.48043 1.10536 5.73478 1 6 1H8C8.26522 1 8.51957 1.10536 8.70711 1.29289C8.89464 1.48043 9 1.73478 9 2V16C9 16.2652 8.89464 16.5196 8.70711 16.7071C8.51957 16.8946 8.26522 17 8 17H6C5.73478 17 5.48043 16.8946 5.29289 16.7071C5.10536 16.5196 5 16.2652 5 16M1 5H5M5 13H9" stroke="black" stroke-width="2" stroke-linecap="round" stroke-linejoin="round"/>
<path d="M10.0001 6.00004L14.0001 5.00004M12.0001 13L15.9231 12.02M9.80308 1.56004L11.9871 1.03004C12.5491 0.895043 13.1201 1.22004 13.2691 1.76204L16.9641 15.18C17.0293 15.4257 17.0004 15.6868 16.8831 15.9123C16.7659 16.1378 16.5686 16.3114 16.3301 16.399L16.1971 16.44L14.0131 16.97C13.4511 17.105 12.8801 16.78 12.7311 16.238L9.03608 2.82004C8.97089 2.57439 8.99976 2.31325 9.11703 2.08778C9.2343 1.8623 9.43153 1.68872 9.67008 1.60104L9.80308 1.56004Z" stroke="black" stroke-width="2" stroke-linecap="round" stroke-linejoin="round"/>
</svg>
