<svg width="40" height="40" viewBox="0 0 40 40" fill="none" xmlns="http://www.w3.org/2000/svg">
<path d="M36.785 0H3.215C1.44 0 0 1.44 0 3.215V36.785C0 38.56 1.44 40 3.215 40H36.785C38.56 40 40 38.56 40 36.785V3.215C40 1.44 38.56 0 36.785 0ZM36.785 36.8C14.395 36.795 3.2 36.79 3.2 36.785C3.205 14.395 3.21 3.2 3.215 3.2C25.605 3.205 36.8 3.21 36.8 3.215C36.795 25.605 36.79 36.8 36.785 36.8ZM5.93 14.995H11.865V34.085H5.93V14.995ZM8.9 12.385C10.795 12.385 12.34 10.845 12.34 8.94498C12.34 8.49323 12.251 8.04591 12.0782 7.62855C11.9053 7.2112 11.6519 6.832 11.3324 6.51255C11.013 6.19311 10.6338 5.93973 10.2164 5.76686C9.79908 5.59398 9.35175 5.505 8.9 5.505C8.44825 5.505 8.00092 5.59398 7.58357 5.76686C7.16622 5.93973 6.78702 6.19311 6.46757 6.51255C6.14812 6.832 5.89473 7.2112 5.72185 7.62855C5.54898 8.04591 5.46 8.49323 5.46 8.94498C5.455 10.845 6.99502 12.385 8.9 12.385ZM21.515 24.64C21.515 22.15 21.99 19.74 25.075 19.74C28.115 19.74 28.16 22.585 28.16 24.8V34.085H34.09V23.615C34.09 18.475 32.98 14.52 26.975 14.52C24.09 14.52 22.155 16.105 21.36 17.605H21.28V14.995H15.585V34.085H21.515V24.64Z" fill="#93CAAC"/>
</svg>
