<svg width="32" height="34" viewBox="0 0 32 34" fill="none" xmlns="http://www.w3.org/2000/svg">
<path d="M29.1667 23.3333C29.8087 23.3337 30.426 23.581 30.8906 24.024C31.3553 24.4671 31.6317 25.0719 31.6625 25.7132C31.6934 26.3545 31.4763 26.9831 31.0564 27.4687C30.6364 27.9543 30.0457 28.2597 29.4067 28.3217L29.1667 28.3333H2.5C1.85797 28.333 1.24068 28.0857 0.776022 27.6426C0.311369 27.1996 0.03498 26.5948 0.00412623 25.9535C-0.0267275 25.3122 0.19032 24.6836 0.610292 24.198C1.03027 23.7124 1.62097 23.407 2.26 23.345L2.5 23.3333H29.1667ZM29.1667 11.6667C29.8297 11.6667 30.4656 11.9301 30.9344 12.3989C31.4033 12.8677 31.6667 13.5036 31.6667 14.1667C31.6667 14.8297 31.4033 15.4656 30.9344 15.9344C30.4656 16.4033 29.8297 16.6667 29.1667 16.6667H2.5C1.83696 16.6667 1.20107 16.4033 0.732233 15.9344C0.263392 15.4656 0 14.8297 0 14.1667C0 13.5036 0.263392 12.8677 0.732233 12.3989C1.20107 11.9301 1.83696 11.6667 2.5 11.6667H29.1667ZM29.1667 0C29.8297 0 30.4656 0.263392 30.9344 0.732233C31.4033 1.20107 31.6667 1.83696 31.6667 2.5C31.6667 3.16304 31.4033 3.79893 30.9344 4.26777C30.4656 4.73661 29.8297 5 29.1667 5H2.5C1.83696 5 1.20107 4.73661 0.732233 4.26777C0.263392 3.79893 0 3.16304 0 2.5C0 1.83696 0.263392 1.20107 0.732233 0.732233C1.20107 0.263392 1.83696 0 2.5 0H29.1667Z" fill="#000000"/>
</svg>
