<svg width="20" height="20" viewBox="0 0 20 20" fill="none" xmlns="http://www.w3.org/2000/svg">
<path d="M7.77209 6.30597L13.6782 6.32129L13.6936 12.2274C13.7019 12.289 13.6969 12.3516 13.6789 12.411C13.661 12.4704 13.6304 12.5253 13.5894 12.5719C13.5484 12.6186 13.4978 12.6558 13.4412 12.6812C13.3845 12.7066 13.323 12.7195 13.2609 12.719C13.1988 12.7186 13.1376 12.7048 13.0813 12.6786C13.025 12.6524 12.9749 12.6145 12.9346 12.5673C12.8942 12.5201 12.8645 12.4648 12.8474 12.4051C12.8303 12.3454 12.8262 12.2827 12.8354 12.2213L12.817 7.79553L6.95375 13.6588C6.87246 13.74 6.76221 13.7857 6.64726 13.7857C6.5323 13.7857 6.42205 13.74 6.34076 13.6588C6.25948 13.5775 6.21381 13.4672 6.21381 13.3523C6.21381 13.2373 6.25948 13.1271 6.34076 13.0458L12.204 7.18254L7.77822 7.16415C7.6632 7.16375 7.55305 7.11766 7.472 7.03604C7.39096 6.95442 7.34566 6.84395 7.34606 6.72893C7.34647 6.61391 7.39255 6.50376 7.47417 6.42271C7.55579 6.34167 7.66626 6.29637 7.78128 6.29677L7.77209 6.30597Z" fill="black"/>
<circle cx="9.97784" cy="10.1961" r="7.30206" stroke="black"/>
</svg>
