<svg width="29" height="29" viewBox="0 0 29 29" fill="none" xmlns="http://www.w3.org/2000/svg">
<g clip-path="url(#clip0_416_314)">
<path fill-rule="evenodd" clip-rule="evenodd" d="M14.9095 6.97741C14.9096 6.87669 14.8898 6.77694 14.8513 6.68387C14.8129 6.59079 14.7564 6.5062 14.6852 6.43494C14.6141 6.36367 14.5295 6.30713 14.4365 6.26853C14.3435 6.22993 14.2438 6.21002 14.143 6.20996C14.0423 6.2099 13.9426 6.22968 13.8495 6.26817C13.7564 6.30665 13.6718 6.36309 13.6006 6.43427C13.5293 6.50545 13.4728 6.58996 13.4342 6.68299C13.3956 6.77602 13.3757 6.87575 13.3756 6.97647V13.5177L6.83533 13.5167C6.63179 13.5167 6.43659 13.5976 6.29267 13.7415C6.14874 13.8854 6.06789 14.0806 6.06789 14.2842C6.06789 14.4877 6.14874 14.6829 6.29267 14.8268C6.43659 14.9708 6.63179 15.0516 6.83533 15.0516L13.3756 15.0507L13.3747 21.591C13.3747 21.6917 13.3945 21.7915 13.4331 21.8846C13.4716 21.9777 13.5282 22.0624 13.5994 22.1336C13.6707 22.2049 13.7553 22.2614 13.8484 22.3C13.9415 22.3385 14.0413 22.3584 14.1421 22.3584C14.3456 22.3584 14.5408 22.2775 14.6848 22.1336C14.756 22.0624 14.8126 21.9777 14.8511 21.8846C14.8897 21.7915 14.9095 21.6917 14.9095 21.5909L14.9086 15.0507L21.4498 15.0507C21.6532 15.0506 21.8483 14.9696 21.992 14.8257C22.1358 14.6818 22.2164 14.4867 22.2163 14.2832C22.2162 14.0798 22.1353 13.8848 21.9913 13.741C21.8474 13.5973 21.6523 13.5166 21.4489 13.5167L14.9086 13.5177L14.9095 6.97741Z" fill="black"/>
</g>
<defs>
<clipPath id="clip0_416_314">
<rect width="20" height="20" fill="white" transform="translate(0 14.2842) rotate(-45)"/>
</clipPath>
</defs>
</svg>
