<svg width="20" height="18" viewBox="0 0 20 18" fill="none" xmlns="http://www.w3.org/2000/svg">
<path d="M9.99981 2.51099C10.5608 2.51099 11.1188 2.86499 11.5438 3.57299L17.4558 13.427C18.3068 14.842 17.6498 16 15.9998 16H3.99981C2.34981 16 1.69281 14.841 2.54381 13.427L8.45581 3.57299C8.88081 2.86499 9.43881 2.51099 9.99981 2.51099ZM9.99981 0.510986C8.70381 0.510986 7.51781 1.25099 6.74081 2.54199L0.828808 12.398C0.0428078 13.707 -0.0431921 15.103 0.593808 16.228C1.23081 17.353 2.47281 18 3.99981 18H15.9998C17.5268 18 18.7698 17.354 19.4058 16.229C20.0418 15.104 19.9568 13.708 19.1708 12.399L13.2588 2.54499C12.4818 1.25099 11.2958 0.510986 9.99981 0.510986Z" fill="black"/>
</svg>
